# xmcd
#
# Track frame offsets:
#	150
#	9602
#	19620
#	30415
#	42395
#	54892
#	65267
#	78437
#	89247
#	101477
#	113230
#	125825
#	138407
#	149427
#	160045
#	172942
#	183865
#	197115
#	208872
#	223507
#
# Disc length: 3164
#
# Revision: 1
# Processed by: cddbd v1.5.1PL0 Copyright (c) Steve Scherf et al.
# Submitted via: dBpowerAMP V4.0
# Normalized: r0:DSETVAR1,TDELIM( - )
#
DISCID=170c5a14
DTITLE=Various Artist - Country Trail
DYEAR=1996
DGENRE=Country
TTITLE0=Bobby Lewis - Hello Mary Lou
TTITLE1=Jim Reeves - He'll have to go
TTITLE2=Freddie Weller - Promised Lane
TTITLE3=Kenny Rogers - But You Know I Love You
TTITLE4=Stonewall Jackson - Me and You and a dog named Bob
TTITLE5=David Houston - A Woman Always Knows
TTITLE6=Jim Reeves - Hows the World Treating You
TTITLE7=Johnny Russell - Blue Eyes Crying In The Rain
TTITLE8=Jean Shepherd - Then He Touched Me
TTITLE9=Johhny Russell - Working Man Blues
TTITLE10=Frankie Lane - High Noon
TTITLE11=Connie Smith - The Hurtin's All Over
TTITLE12=Pat Boone - Johnny Will
TTITLE13=Judy Miller - Darling You Can Always Come Back Home
TTITLE14=Wanda Jackson - Raining In My Heart
TTITLE15=Willie Nelson - Is There Something On Your Mind
TTITLE16=Margo Smith - Don't Break The Heart That Loves You
TTITLE17=David Houston - Already It's Heaven
TTITLE18=Faron Young - Your Times Commin'
TTITLE19=Jeanne Seely - One Day At A Time
EXTD=Country Trail
EXTT0=
EXTT1=
EXTT2=
EXTT3=
EXTT4=
EXTT5=
EXTT6=
EXTT7=
EXTT8=
EXTT9=
EXTT10=
EXTT11=
EXTT12=
EXTT13=
EXTT14=
EXTT15=
EXTT16=
EXTT17=
EXTT18=
EXTT19=
PLAYORDER=
